<svg xmlns="http://www.w3.org/2000/svg" width="1200" height="630" viewBox="0 0 1200 630">
    <defs>
        <radialGradient id="resplandor" cx="0" cy="0" r="1" gradientTransform="translate(180 80) rotate(40) scale(580 420)" gradientUnits="userSpaceOnUse">
            <stop stop-color="#1570ef" stop-opacity=".38" />
            <stop offset="1" stop-color="#101828" stop-opacity="0" />
        </radialGradient>
        <pattern id="rejilla" width="40" height="40" patternUnits="userSpaceOnUse">
            <path d="M40 0H0V40" fill="none" stroke="#98a2b3" stroke-opacity=".08" />
        </pattern>
    </defs>

    <rect width="1200" height="630" fill="#101828" />
    <rect width="1200" height="630" fill="url(#resplandor)" />
    <rect width="1200" height="630" fill="url(#rejilla)" />

    <rect x="72" y="66" width="96" height="96" rx="22" fill="#182230" stroke="#1570ef" stroke-width="3" />
    <text x="120" y="128" fill="#fff" font-family="Arial, sans-serif" font-size="36" font-weight="700" text-anchor="middle">NS</text>
    <text x="194" y="104" fill="#98a2b3" font-family="Arial, sans-serif" font-size="18" font-weight="700" letter-spacing="3">PORTFOLIO PROFESIONAL</text>

    <text x="72" y="270" fill="#fff" font-family="Arial, sans-serif" font-size="58" font-weight="700">Nicolás Martín Santa Ana</text>
    <text x="72" y="334" fill="#53b1fd" font-family="Arial, sans-serif" font-size="38" font-weight="700">Full Stack PHP/Laravel Developer</text>

    <rect x="72" y="390" width="930" height="2" rx="1" fill="#344054" />
    <text x="72" y="446" fill="#d0d5dd" font-family="Arial, sans-serif" font-size="25">Laravel  ·  JavaScript  ·  MySQL  ·  APIs REST</text>
    <text x="72" y="514" fill="#98a2b3" font-family="Arial, sans-serif" font-size="21">Sistemas web de gestión, integraciones y soporte evolutivo</text>

    <g transform="translate(1010 106)" fill="none" stroke-linecap="round">
        <circle cx="60" cy="60" r="60" stroke="#1570ef" stroke-opacity=".35" stroke-width="2" />
        <circle cx="60" cy="60" r="38" stroke="#53b1fd" stroke-opacity=".45" stroke-width="2" />
        <path d="M42 52 27 60l15 8M78 52l15 8-15 8M68 37 52 83" stroke="#53b1fd" stroke-width="4" />
    </g>

    <rect x="72" y="570" width="1056" height="1" fill="#344054" />
    <circle cx="83" cy="598" r="5" fill="#1570ef" />
    <text x="100" y="605" fill="#98a2b3" font-family="Arial, sans-serif" font-size="16">Buenos Aires, Argentina</text>
</svg>
